<mxfile host="Electron" agent="Mozilla/5.0 (X11; Linux x86_64) AppleWebKit/537.36 (KHTML, like Gecko) draw.io/26.0.4 Chrome/128.0.6613.186 Electron/32.2.5 Safari/537.36" version="26.0.4">
  <diagram name="Page-1" id="5Ee2OPFk20WyHXcFip5t">
    <mxGraphModel dx="1114" dy="1027" grid="1" gridSize="10" guides="1" tooltips="1" connect="1" arrows="1" fold="1" page="1" pageScale="1" pageWidth="850" pageHeight="1100" math="0" shadow="0">
      <root>
        <mxCell id="0" />
        <mxCell id="1" parent="0" />
        <mxCell id="SzuIg_dEkGIzHL59Hy_L-1" value="&amp;nbsp;?Platform=Mobile&amp;nbsp;" style="rounded=0;orthogonalLoop=1;jettySize=auto;html=1;exitX=1;exitY=0.25;exitDx=0;exitDy=0;entryX=0;entryY=0.5;entryDx=0;entryDy=0;startArrow=classic;startFill=1;edgeStyle=orthogonalEdgeStyle;fontColor=#009900;" edge="1" parent="1" source="SzuIg_dEkGIzHL59Hy_L-3" target="SzuIg_dEkGIzHL59Hy_L-5">
          <mxGeometry relative="1" as="geometry" />
        </mxCell>
        <mxCell id="SzuIg_dEkGIzHL59Hy_L-2" value="&amp;nbsp;?Platform=Desktop&amp;nbsp;" style="rounded=0;orthogonalLoop=1;jettySize=auto;html=1;exitX=1;exitY=0.75;exitDx=0;exitDy=0;entryX=0;entryY=0.5;entryDx=0;entryDy=0;startArrow=classic;startFill=1;edgeStyle=orthogonalEdgeStyle;fontColor=#0000FF;" edge="1" parent="1" source="SzuIg_dEkGIzHL59Hy_L-3" target="SzuIg_dEkGIzHL59Hy_L-18">
          <mxGeometry relative="1" as="geometry">
            <mxPoint x="710" y="565" as="targetPoint" />
          </mxGeometry>
        </mxCell>
        <mxCell id="SzuIg_dEkGIzHL59Hy_L-3" value="External&lt;div&gt;Application&lt;/div&gt;&lt;div&gt;Load&lt;/div&gt;&lt;div&gt;Balancer&lt;/div&gt;&lt;div&gt;(v2)&lt;/div&gt;" style="rounded=0;whiteSpace=wrap;html=1;fontStyle=1" vertex="1" parent="1">
          <mxGeometry x="414" y="290" width="130" height="350" as="geometry" />
        </mxCell>
        <mxCell id="SzuIg_dEkGIzHL59Hy_L-4" value="" style="sketch=0;outlineConnect=0;fontColor=#232F3E;gradientColor=none;fillColor=#8C4FFF;strokeColor=none;dashed=0;verticalLabelPosition=bottom;verticalAlign=top;align=center;html=1;fontSize=12;fontStyle=0;aspect=fixed;pointerEvents=1;shape=mxgraph.aws4.application_load_balancer;" vertex="1" parent="1">
          <mxGeometry x="440" y="540" width="78" height="78" as="geometry" />
        </mxCell>
        <mxCell id="SzuIg_dEkGIzHL59Hy_L-5" value="&lt;font style=&quot;color: rgb(0, 153, 0); font-size: 18px;&quot;&gt;&lt;b&gt;Target Group 1&lt;/b&gt;&lt;/font&gt;&lt;div&gt;AWS - EC2 based&lt;/div&gt;" style="rounded=0;whiteSpace=wrap;html=1;verticalAlign=top;" vertex="1" parent="1">
          <mxGeometry x="710" y="290" width="240" height="150" as="geometry" />
        </mxCell>
        <mxCell id="SzuIg_dEkGIzHL59Hy_L-6" value="" style="sketch=0;outlineConnect=0;fontColor=#232F3E;gradientColor=none;fillColor=#ED7100;strokeColor=none;dashed=0;verticalLabelPosition=bottom;verticalAlign=top;align=center;html=1;fontSize=12;fontStyle=0;aspect=fixed;pointerEvents=1;shape=mxgraph.aws4.instance2;" vertex="1" parent="1">
          <mxGeometry x="730" y="350" width="70" height="70" as="geometry" />
        </mxCell>
        <mxCell id="SzuIg_dEkGIzHL59Hy_L-7" value="" style="sketch=0;outlineConnect=0;fontColor=#232F3E;gradientColor=none;fillColor=#ED7100;strokeColor=none;dashed=0;verticalLabelPosition=bottom;verticalAlign=top;align=center;html=1;fontSize=12;fontStyle=0;aspect=fixed;pointerEvents=1;shape=mxgraph.aws4.instance2;" vertex="1" parent="1">
          <mxGeometry x="860" y="350" width="70" height="70" as="geometry" />
        </mxCell>
        <mxCell id="SzuIg_dEkGIzHL59Hy_L-13" value="&amp;nbsp;Requests&amp;nbsp;" style="edgeStyle=orthogonalEdgeStyle;rounded=0;orthogonalLoop=1;jettySize=auto;html=1;entryX=0;entryY=0.5;entryDx=0;entryDy=0;" edge="1" parent="1" source="SzuIg_dEkGIzHL59Hy_L-14" target="SzuIg_dEkGIzHL59Hy_L-3">
          <mxGeometry x="-0.0032" relative="1" as="geometry">
            <mxPoint as="offset" />
          </mxGeometry>
        </mxCell>
        <mxCell id="SzuIg_dEkGIzHL59Hy_L-14" value="WWW" style="text;html=1;align=center;verticalAlign=middle;resizable=0;points=[];autosize=1;strokeColor=none;fillColor=none;fontSize=35;" vertex="1" parent="1">
          <mxGeometry x="130" y="435" width="120" height="60" as="geometry" />
        </mxCell>
        <mxCell id="SzuIg_dEkGIzHL59Hy_L-18" value="&lt;font style=&quot;font-size: 18px; color: rgb(0, 0, 255);&quot;&gt;&lt;b style=&quot;&quot;&gt;Target Group 2&lt;/b&gt;&lt;/font&gt;&lt;div&gt;On-premises - Private IP routing&lt;/div&gt;" style="rounded=0;whiteSpace=wrap;html=1;verticalAlign=top;" vertex="1" parent="1">
          <mxGeometry x="710" y="490" width="240" height="150" as="geometry" />
        </mxCell>
        <mxCell id="SzuIg_dEkGIzHL59Hy_L-19" value="" style="sketch=0;outlineConnect=0;fontColor=#232F3E;gradientColor=none;fillColor=#ED7100;strokeColor=none;dashed=0;verticalLabelPosition=bottom;verticalAlign=top;align=center;html=1;fontSize=12;fontStyle=0;aspect=fixed;pointerEvents=1;shape=mxgraph.aws4.instance2;" vertex="1" parent="1">
          <mxGeometry x="730" y="550" width="70" height="70" as="geometry" />
        </mxCell>
        <mxCell id="SzuIg_dEkGIzHL59Hy_L-20" value="" style="sketch=0;outlineConnect=0;fontColor=#232F3E;gradientColor=none;fillColor=#ED7100;strokeColor=none;dashed=0;verticalLabelPosition=bottom;verticalAlign=top;align=center;html=1;fontSize=12;fontStyle=0;aspect=fixed;pointerEvents=1;shape=mxgraph.aws4.instance2;" vertex="1" parent="1">
          <mxGeometry x="860" y="550" width="70" height="70" as="geometry" />
        </mxCell>
      </root>
    </mxGraphModel>
  </diagram>
</mxfile>
